<?xml version="1.0" encoding="utf-8"?>
<!-- Generator: Adobe Illustrator 25.2.3, SVG Export Plug-In . SVG Version: 6.00 Build 0)  -->
<svg version="1.1" id="Layer_3" xmlns="http://www.w3.org/2000/svg" xmlns:xlink="http://www.w3.org/1999/xlink" x="0px" y="0px"
	 width="820px" height="278.243px" viewBox="0 0 820 278.243" style="enable-background:new 0 0 820 278.243;background-color:#EEE" xml:space="preserve"
	>
<style type="text/css">
	.st0{fill:none;}
	.st1{fill:#333333;}
	.st2{fill:#1CD0BB;}
	.st3{fill:#FFFFFF;}
</style>
<g>
	<rect x="132.809" y="155.016" class="st0" width="39.239" height="4.305"/>
	<path class="st1" d="M156.177,166.454h-15.752c-0.469,0-0.887-0.297-1.04-0.741s-0.008-0.936,0.361-1.225
		c2.235-1.753,2.058-3.952,2.049-4.045c-0.056-0.601,0.382-1.14,0.982-1.202c0.598-0.069,1.138,0.365,1.206,0.965
		c0.012,0.106,0.206,2.024-1.079,4.047h10.803c-1.294-2.054-1.1-4.035-1.088-4.144c0.066-0.604,0.613-1.049,1.213-0.974
		c0.604,0.066,1.04,0.609,0.974,1.213c-0.008,0.087-0.19,2.382,2.05,4.139c0.369,0.29,0.514,0.781,0.361,1.225
		C157.063,166.156,156.646,166.454,156.177,166.454z"/>
	<path class="st1" d="M178.967,143.904h-2.2v-20.412c0-0.598-0.487-1.085-1.085-1.085H120.92c-0.599,0-1.085,0.487-1.085,1.085
		v11.529h-2.2v-11.529c0-1.812,1.474-3.285,3.286-3.285h54.762c1.812,0,3.285,1.474,3.285,3.285v20.412H178.967z"/>
	<rect x="133.378" y="158.209" class="st1" width="38.669" height="2.2"/>
	<rect x="133.017" y="153.15" class="st1" width="39.03" height="2.2"/>
	<path class="st1" d="M182.966,144.068v20.41h-10.198v-20.41H182.966 M184.31,141.868h-12.886c-0.473,0-0.856,0.383-0.856,0.856
		v23.099c0,0.473,0.383,0.856,0.856,0.856h12.886c0.473,0,0.856-0.383,0.856-0.856v-23.099
		C185.166,142.251,184.783,141.868,184.31,141.868L184.31,141.868z"/>
	<path class="st1" d="M131.409,135.128v29.316h-22.56v-29.316H131.409 M132.055,132.928h-23.853c-0.858,0-1.554,0.696-1.554,1.553
		v30.609c0,0.858,0.696,1.553,1.554,1.553h23.853c0.858,0,1.553-0.696,1.553-1.553v-30.609
		C133.609,133.623,132.913,132.928,132.055,132.928L132.055,132.928z"/>
	<g>
		<path class="st1" d="M169.932,118.099h-43.263c-1.297,0-2.763-0.478-3.112-1.544l-0.964-2.943
			c-0.11-0.335-0.052-0.702,0.155-0.988s0.538-0.455,0.891-0.455h49.325c0.353,0,0.684,0.169,0.891,0.455s0.265,0.653,0.155,0.988
			l-0.964,2.943C172.695,117.621,171.229,118.099,169.932,118.099z M125.589,115.691c0.165,0.082,0.549,0.208,1.08,0.208h43.263
			c0.531,0,0.916-0.126,1.08-0.208l0.433-1.322h-46.29L125.589,115.691z"/>
		<path class="st1" d="M166.451,114.199c-0.607,0-1.1-0.493-1.1-1.1V90.823h-34.1v22.15c0,0.607-0.493,1.1-1.1,1.1
			s-1.1-0.493-1.1-1.1v-23.25c0-0.607,0.493-1.1,1.1-1.1h36.3c0.607,0,1.1,0.493,1.1,1.1v23.376
			C167.551,113.706,167.058,114.199,166.451,114.199z"/>
	</g>
</g>
<g>
	<path class="st1" d="M661.213,144.6c-9.235,0-19.174-1.902-19.174-6.08s9.938-6.08,19.174-6.08s19.174,1.903,19.174,6.08
		S670.448,144.6,661.213,144.6z M661.213,134.64c-10.982,0-16.975,2.563-16.975,3.88s5.992,3.879,16.975,3.879
		s16.975-2.562,16.975-3.879S672.195,134.64,661.213,134.64z"/>
	<path class="st1" d="M661.213,153.698c-9.235,0-19.174-1.902-19.174-6.08h2.199c0,1.317,5.992,3.879,16.975,3.879
		s16.975-2.562,16.975-3.879h2.199C680.387,151.796,670.448,153.698,661.213,153.698z"/>
	<path class="st1" d="M661.213,162.797c-9.235,0-19.174-1.903-19.174-6.08h2.199c0,1.317,5.992,3.88,16.975,3.88
		s16.975-2.563,16.975-3.88h2.199C680.387,160.894,670.448,162.797,661.213,162.797z"/>
	<path class="st1" d="M661.213,171.895c-9.235,0-19.174-1.902-19.174-6.08h2.199c0,1.317,5.992,3.879,16.975,3.879
		s16.975-2.562,16.975-3.879h2.199C680.387,169.993,670.448,171.895,661.213,171.895z"/>
	<rect x="642.055" y="138.612" class="st1" width="2.199" height="27.695"/>
	<rect x="678.156" y="138.612" class="st1" width="2.199" height="27.695"/>
	<path class="st1" d="M717.095,144.6c-9.235,0-19.174-1.902-19.174-6.08s9.938-6.08,19.174-6.08s19.174,1.903,19.174,6.08
		S726.33,144.6,717.095,144.6z M717.095,134.64c-10.982,0-16.975,2.563-16.975,3.88s5.992,3.879,16.975,3.879
		s16.975-2.562,16.975-3.879S728.077,134.64,717.095,134.64z"/>
	<path class="st1" d="M717.095,153.698c-9.235,0-19.174-1.902-19.174-6.08h2.199c0,1.317,5.992,3.879,16.975,3.879
		s16.975-2.562,16.975-3.879h2.199C736.269,151.796,726.33,153.698,717.095,153.698z"/>
	<path class="st1" d="M717.095,162.797c-9.235,0-19.174-1.903-19.174-6.08h2.199c0,1.317,5.992,3.88,16.975,3.88
		s16.975-2.563,16.975-3.88h2.199C736.269,160.894,726.33,162.797,717.095,162.797z"/>
	<path class="st1" d="M717.095,171.895c-9.235,0-19.174-1.902-19.174-6.08h2.199c0,1.317,5.992,3.879,16.975,3.879
		s16.975-2.562,16.975-3.879h2.199C736.269,169.993,726.33,171.895,717.095,171.895z"/>
	<rect x="697.937" y="138.612" class="st1" width="2.199" height="27.695"/>
	<rect x="734.039" y="138.612" class="st1" width="2.199" height="27.695"/>
	<path class="st1" d="M689.153,96.875c-9.234,0-19.173-1.903-19.173-6.08s9.938-6.08,19.173-6.08s19.174,1.902,19.174,6.08
		S698.389,96.875,689.153,96.875z M689.153,86.916c-10.982,0-16.974,2.562-16.974,3.879s5.991,3.88,16.974,3.88
		s16.975-2.563,16.975-3.88S700.136,86.916,689.153,86.916z"/>
	<path class="st1" d="M689.153,105.974c-9.234,0-19.173-1.902-19.173-6.08h2.199c0,1.317,5.991,3.879,16.974,3.879
		s16.975-2.562,16.975-3.879h2.199C708.327,104.071,698.389,105.974,689.153,105.974z"/>
	<path class="st1" d="M689.153,115.072c-9.234,0-19.173-1.902-19.173-6.08h2.199c0,1.317,5.991,3.879,16.974,3.879
		s16.975-2.562,16.975-3.879h2.199C708.327,113.17,698.389,115.072,689.153,115.072z"/>
	<path class="st1" d="M689.153,124.171c-9.234,0-19.173-1.902-19.173-6.08h2.199c0,1.317,5.991,3.879,16.974,3.879
		s16.975-2.562,16.975-3.879h2.199C708.327,122.269,698.389,124.171,689.153,124.171z"/>
	<rect x="669.995" y="90.888" class="st1" width="2.199" height="27.695"/>
	<rect x="706.098" y="90.888" class="st1" width="2.199" height="27.695"/>
	<rect x="679.287" y="147.946" class="st1" width="19.733" height="2.2"/>
	
		<rect x="660.946" y="126.044" transform="matrix(0.7073 -0.7069 0.7069 0.7073 106.0552 510.4307)" class="st1" width="16.945" height="2.2"/>
	
		<rect x="707.972" y="118.702" transform="matrix(0.7071 -0.7071 0.7071 0.7071 117.7561 538.6378)" class="st1" width="2.199" height="16.945"/>
</g>
<path id="Rectangle_1724_3_" class="st2" d="M207.724,73.895v151.171H85.895V73.895H207.724 M215.015,66.604H78.605v165.752h136.41
	L215.015,66.604L215.015,66.604z"/>
<path id="Rectangle_1724_2_" class="st2" d="M748.169,73.895v151.171H626.341V73.895H748.169 M755.46,66.604H619.05v165.752h136.41
	L755.46,66.604L755.46,66.604z"/>
<g>
	<g>
		<rect x="266.052" y="198.759" class="st1" width="289.644" height="4.512"/>
		<g>
			<polygon class="st1" points="553.721,194.266 565.408,201.015 553.721,207.764 			"/>
		</g>
	</g>
</g>
<g>
	<g>
		<rect x="275.765" y="214.36" class="st1" width="289.644" height="4.512"/>
		<g>
			<polygon class="st1" points="277.739,223.364 266.052,216.616 277.739,209.867 			"/>
		</g>
	</g>
</g>
<g>
	<g>
		<rect x="266.052" y="70.374" class="st1" width="289.644" height="4.512"/>
		<g>
			<polygon class="st1" points="553.721,65.881 565.408,72.63 553.721,79.379 			"/>
		</g>
	</g>
</g>
<g>
	<g>
		<rect x="275.765" y="85.975" class="st1" width="289.644" height="4.512"/>
		<g>
			<polygon class="st1" points="277.739,94.979 266.052,88.231 277.739,81.482 			"/>
		</g>
	</g>
</g>
<g>
	<g>
		<rect x="266.052" y="121.739" class="st1" width="289.644" height="4.512"/>
		<g>
			<polygon class="st1" points="553.721,117.246 565.408,123.995 553.721,130.743 			"/>
		</g>
	</g>
</g>
<g>
	<g>
		<rect x="275.765" y="137.339" class="st1" width="289.644" height="4.512"/>
		<g>
			<polygon class="st1" points="277.739,146.344 266.052,139.595 277.739,132.847 			"/>
		</g>
	</g>
</g>
<rect x="56.327" y="179.297" class="st1" width="179.878" height="27.821"/>
<g>
	<path class="st3" d="M79.693,187.156h1.943l5.25,12.016H84.67l-1.21-2.88h-5.642l-1.228,2.88h-2.147L79.693,187.156z
		 M82.693,194.433l-2.062-4.772l-2.045,4.772H82.693z"/>
	<path class="st3" d="M89.986,187.241h4.704c2.795,0,4.534,1.585,4.534,3.988v0.034c0,2.676-2.147,4.074-4.772,4.074h-2.369v3.835
		h-2.096L89.986,187.241L89.986,187.241z M94.52,193.445c1.585,0,2.573-0.886,2.573-2.13v-0.034c0-1.397-1.005-2.13-2.573-2.13
		h-2.438v4.295L94.52,193.445L94.52,193.445z"/>
	<path class="st3" d="M102.427,187.241h4.704c2.795,0,4.534,1.585,4.534,3.988v0.034c0,2.676-2.147,4.074-4.772,4.074h-2.369v3.835
		h-2.096L102.427,187.241L102.427,187.241z M106.96,193.445c1.585,0,2.573-0.886,2.573-2.13v-0.034c0-1.397-1.005-2.13-2.573-2.13
		h-2.438v4.295L106.96,193.445L106.96,193.445z"/>
	<path class="st3" d="M114.868,187.241h2.096v10.022h6.272v1.909h-8.369L114.868,187.241L114.868,187.241z"/>
	<path class="st3" d="M126.592,187.241h2.096v11.931h-2.096V187.241z"/>
	<path class="st3" d="M132.403,193.241v-0.034c0-3.392,2.54-6.17,6.153-6.17c2.199,0,3.528,0.767,4.67,1.858l-1.347,1.551
		c-0.954-0.886-1.977-1.483-3.34-1.483c-2.267,0-3.938,1.875-3.938,4.21v0.034c0,2.335,1.653,4.227,3.938,4.227
		c1.466,0,2.403-0.58,3.426-1.534l1.346,1.364c-1.244,1.295-2.607,2.113-4.84,2.113
		C134.994,199.376,132.403,196.666,132.403,193.241z"/>
	<path class="st3" d="M150.792,187.156h1.943l5.25,12.016h-2.216l-1.21-2.88h-5.642l-1.228,2.88h-2.147L150.792,187.156z
		 M153.792,194.433l-2.062-4.772l-2.045,4.772H153.792z"/>
	<path class="st3" d="M162.482,189.184h-3.784v-1.943h9.681v1.943h-3.784v9.988h-2.114L162.482,189.184L162.482,189.184z"/>
	<path class="st3" d="M171.77,187.241h2.096v11.931h-2.096V187.241z"/>
	<path class="st3" d="M177.581,193.241v-0.034c0-3.358,2.591-6.17,6.255-6.17s6.221,2.778,6.221,6.136v0.034
		c0,3.357-2.591,6.17-6.255,6.17S177.581,196.598,177.581,193.241z M187.858,193.241v-0.034c0-2.318-1.688-4.244-4.057-4.244
		s-4.022,1.892-4.022,4.21v0.034c0,2.318,1.688,4.227,4.057,4.227S187.858,195.558,187.858,193.241z"/>
	<path class="st3" d="M193.651,187.241h1.943l6.392,8.249v-8.249h2.062v11.931h-1.755l-6.579-8.488v8.488h-2.062L193.651,187.241
		L193.651,187.241z"/>
	<path class="st3" d="M207.37,197.433l1.261-1.5c1.142,0.988,2.301,1.551,3.767,1.551c1.295,0,2.114-0.613,2.114-1.5v-0.034
		c0-0.853-0.478-1.312-2.693-1.824c-2.54-0.614-3.972-1.364-3.972-3.562v-0.034c0-2.045,1.705-3.46,4.074-3.46
		c1.738,0,3.119,0.528,4.329,1.5l-1.125,1.585c-1.074-0.801-2.147-1.228-3.238-1.228c-1.227,0-1.943,0.631-1.943,1.415v0.034
		c0,0.92,0.545,1.33,2.846,1.875c2.522,0.614,3.818,1.517,3.818,3.494v0.034c0,2.232-1.755,3.562-4.261,3.562
		C210.523,199.342,208.801,198.712,207.37,197.433z"/>
</g>
<rect x="594.737" y="179.297" class="st1" width="179.878" height="27.821"/>
<g>
	<path class="st3" d="M610.86,187.241h4.448c3.75,0,6.341,2.573,6.341,5.931v0.034c0,3.357-2.591,5.965-6.341,5.965h-4.448V187.241z
		 M612.957,189.15v8.113h2.352c2.506,0,4.142-1.688,4.142-4.022v-0.034c0-2.335-1.636-4.057-4.142-4.057H612.957z"/>
	<path class="st3" d="M628.636,187.156h1.943l5.249,12.016h-2.216l-1.21-2.88h-5.642l-1.227,2.88h-2.147L628.636,187.156z
		 M631.636,194.433l-2.062-4.772l-2.045,4.772H631.636z"/>
	<path class="st3" d="M640.326,189.184h-3.784v-1.943h9.681v1.943h-3.783v9.988h-2.113v-9.988H640.326z"/>
	<path class="st3" d="M652.188,187.156h1.943l5.249,12.016h-2.216l-1.21-2.88h-5.642l-1.227,2.88h-2.147L652.188,187.156z
		 M655.188,194.433l-2.062-4.772l-2.045,4.772H655.188z"/>
	<path class="st3" d="M667.848,197.433l1.262-1.5c1.142,0.988,2.301,1.551,3.767,1.551c1.296,0,2.113-0.613,2.113-1.5v-0.034
		c0-0.853-0.477-1.312-2.692-1.824c-2.54-0.614-3.972-1.364-3.972-3.562v-0.034c0-2.045,1.704-3.46,4.073-3.46
		c1.739,0,3.119,0.528,4.33,1.5l-1.125,1.585c-1.074-0.801-2.147-1.228-3.238-1.228c-1.228,0-1.943,0.631-1.943,1.415v0.034
		c0,0.92,0.545,1.33,2.847,1.875c2.522,0.614,3.817,1.517,3.817,3.494v0.034c0,2.232-1.756,3.562-4.261,3.562
		C671.001,199.342,669.28,198.712,667.848,197.433z"/>
	<path class="st3" d="M680.084,193.241v-0.034c0-3.358,2.591-6.17,6.255-6.17s6.221,2.778,6.221,6.136v0.034
		c0,3.357-2.59,6.17-6.255,6.17C682.641,199.376,680.084,196.598,680.084,193.241z M690.361,193.241v-0.034
		c0-2.318-1.688-4.244-4.057-4.244s-4.022,1.892-4.022,4.21v0.034c0,2.318,1.688,4.227,4.057,4.227S690.361,195.558,690.361,193.241
		z"/>
	<path class="st3" d="M695.967,194.11v-6.869h2.097v6.783c0,2.216,1.142,3.392,3.017,3.392c1.857,0,2.999-1.108,2.999-3.307v-6.869
		h2.097v6.766c0,3.562-2.011,5.352-5.13,5.352C697.943,199.359,695.967,197.57,695.967,194.11z"/>
	<path class="st3" d="M710.111,187.241h5.317c1.5,0,2.676,0.443,3.443,1.193c0.63,0.647,0.988,1.534,0.988,2.574v0.034
		c0,1.96-1.176,3.136-2.829,3.613l3.221,4.517h-2.488l-2.932-4.159h-2.624v4.159h-2.097L710.111,187.241L710.111,187.241z
		 M715.275,193.155c1.5,0,2.454-0.784,2.454-1.994v-0.034c0-1.278-0.92-1.977-2.471-1.977h-3.051v4.005H715.275z"/>
	<path class="st3" d="M722.961,193.241v-0.034c0-3.392,2.539-6.17,6.152-6.17c2.199,0,3.528,0.767,4.67,1.858l-1.346,1.551
		c-0.955-0.886-1.978-1.483-3.341-1.483c-2.267,0-3.938,1.875-3.938,4.21v0.034c0,2.335,1.653,4.227,3.938,4.227
		c1.466,0,2.403-0.58,3.426-1.534l1.347,1.364c-1.244,1.295-2.608,2.113-4.841,2.113
		C725.552,199.376,722.961,196.666,722.961,193.241z"/>
	<path class="st3" d="M737.123,187.241h8.846v1.875h-6.749v3.102h5.982v1.875h-5.982v3.204h6.834v1.875h-8.931L737.123,187.241
		L737.123,187.241z"/>
	<path class="st3" d="M748.796,197.433l1.262-1.5c1.142,0.988,2.301,1.551,3.767,1.551c1.296,0,2.113-0.613,2.113-1.5v-0.034
		c0-0.853-0.477-1.312-2.692-1.824c-2.54-0.614-3.972-1.364-3.972-3.562v-0.034c0-2.045,1.704-3.46,4.073-3.46
		c1.739,0,3.119,0.528,4.33,1.5l-1.125,1.585c-1.074-0.801-2.147-1.228-3.238-1.228c-1.228,0-1.943,0.631-1.943,1.415v0.034
		c0,0.92,0.545,1.33,2.847,1.875c2.522,0.614,3.817,1.517,3.817,3.494v0.034c0,2.232-1.756,3.562-4.261,3.562
		C751.949,199.342,750.229,198.712,748.796,197.433z"/>
</g>
<rect x="263.867" y="21.521" class="st2" width="303.727" height="27.821"/>
<g>
	<path class="st1" d="M290.389,29.39h5.317c1.5,0,2.676,0.443,3.443,1.193c0.631,0.647,0.989,1.534,0.989,2.574v0.034
		c0,1.96-1.176,3.136-2.829,3.613l3.221,4.517h-2.489l-2.931-4.159h-2.625v4.159h-2.096L290.389,29.39L290.389,29.39z
		 M295.553,35.304c1.5,0,2.455-0.784,2.455-1.994v-0.034c0-1.278-0.92-1.977-2.472-1.977h-3.051v4.005H295.553z"/>
	<path class="st1" d="M303.767,29.39h8.846v1.875h-6.75v3.102h5.982v1.875h-5.982v3.204h6.834v1.875h-8.931L303.767,29.39
		L303.767,29.39z"/>
	<path class="st1" d="M320.468,29.304h1.943l5.25,12.016h-2.216l-1.21-2.88h-5.642l-1.228,2.88h-2.147L320.468,29.304z
		 M323.468,36.582l-2.062-4.772l-2.045,4.772H323.468z"/>
	<path class="st1" d="M330.761,29.39h2.096v10.022h6.272v1.909h-8.369L330.761,29.39L330.761,29.39z"/>
	<path class="st1" d="M341.105,35.082h5.045v2.028h-5.045V35.082z"/>
	<path class="st1" d="M351.091,31.333h-3.784V29.39h9.681v1.943h-3.784v9.988h-2.114v-9.988H351.091z"/>
	<path class="st1" d="M360.379,29.39h2.096v11.93h-2.096V29.39z"/>
	<path class="st1" d="M366.719,29.39h2.232l3.63,5.642l3.63-5.642h2.233v11.93h-2.096v-8.556l-3.767,5.625h-0.068l-3.733-5.59v8.522
		h-2.062V29.39H366.719z"/>
	<path class="st1" d="M382.567,29.39h8.846v1.875h-6.75v3.102h5.982v1.875h-5.982v3.204h6.834v1.875h-8.931L382.567,29.39
		L382.567,29.39z"/>
	<path class="st1" d="M405.438,29.304h1.943l5.25,12.016h-2.216l-1.21-2.88h-5.642l-1.228,2.88h-2.147L405.438,29.304z
		 M408.438,36.582l-2.062-4.772l-2.045,4.772H408.438z"/>
	<path class="st1" d="M415.73,29.39h4.704c2.795,0,4.533,1.585,4.533,3.988v0.034c0,2.676-2.147,4.074-4.772,4.074h-2.368v3.835
		h-2.097V29.39z M420.264,35.593c1.585,0,2.574-0.886,2.574-2.13v-0.034c0-1.397-1.006-2.13-2.574-2.13h-2.437v4.295L420.264,35.593
		L420.264,35.593z"/>
	<path class="st1" d="M428.29,29.39h2.097v11.93h-2.097V29.39z"/>
	<path class="st1" d="M440.799,29.39h5.317c1.5,0,2.676,0.443,3.443,1.193c0.63,0.647,0.988,1.534,0.988,2.574v0.034
		c0,1.96-1.176,3.136-2.829,3.613l3.221,4.517h-2.488l-2.932-4.159h-2.624v4.159h-2.097V29.39H440.799z M445.963,35.304
		c1.5,0,2.454-0.784,2.454-1.994v-0.034c0-1.278-0.92-1.977-2.471-1.977h-3.051v4.005H445.963z"/>
	<path class="st1" d="M454.177,29.39h8.846v1.875h-6.749v3.102h5.982v1.875h-5.982v3.204h6.834v1.875h-8.931L454.177,29.39
		L454.177,29.39z"/>
	<path class="st1" d="M477.406,41.678l-1.432-1.278c-1.006,0.699-2.233,1.125-3.631,1.125c-3.664,0-6.221-2.778-6.221-6.136v-0.034
		c0-3.358,2.591-6.17,6.255-6.17s6.221,2.778,6.221,6.136v0.034c0,1.346-0.442,2.625-1.21,3.665l1.363,1.159L477.406,41.678z
		 M474.44,39.037l-2.062-1.756l1.347-1.534l2.097,1.909c0.375-0.647,0.579-1.415,0.579-2.267v-0.034
		c0-2.318-1.688-4.244-4.057-4.244s-4.022,1.892-4.022,4.21v0.034c0,2.318,1.688,4.227,4.057,4.227
		C473.162,39.582,473.86,39.378,474.44,39.037z"/>
	<path class="st1" d="M482.006,36.258V29.39h2.097v6.783c0,2.216,1.142,3.392,3.017,3.392c1.857,0,2.999-1.108,2.999-3.307V29.39
		h2.097v6.766c0,3.562-2.011,5.352-5.13,5.352C483.982,41.508,482.006,39.718,482.006,36.258z"/>
	<path class="st1" d="M496.15,29.39h8.846v1.875h-6.749v3.102h5.982v1.875h-5.982v3.204h6.834v1.875h-8.931L496.15,29.39
		L496.15,29.39z"/>
	<path class="st1" d="M507.823,39.582l1.262-1.5c1.142,0.988,2.301,1.551,3.767,1.551c1.296,0,2.113-0.613,2.113-1.5v-0.034
		c0-0.853-0.477-1.312-2.692-1.824c-2.54-0.614-3.972-1.364-3.972-3.562v-0.034c0-2.045,1.704-3.46,4.073-3.46
		c1.739,0,3.119,0.528,4.33,1.5l-1.125,1.585c-1.074-0.801-2.147-1.228-3.238-1.228c-1.228,0-1.943,0.631-1.943,1.415v0.034
		c0,0.92,0.545,1.33,2.847,1.875c2.522,0.614,3.817,1.517,3.817,3.494v0.034c0,2.232-1.756,3.562-4.261,3.562
		C510.977,41.491,509.256,40.86,507.823,39.582z"/>
	<path class="st1" d="M523.265,31.333h-3.784V29.39h9.682v1.943h-3.784v9.988h-2.113v-9.988H523.265z"/>
	<path class="st1" d="M531.375,39.582l1.262-1.5c1.142,0.988,2.301,1.551,3.767,1.551c1.296,0,2.113-0.613,2.113-1.5v-0.034
		c0-0.853-0.477-1.312-2.692-1.824c-2.54-0.614-3.972-1.364-3.972-3.562v-0.034c0-2.045,1.704-3.46,4.073-3.46
		c1.739,0,3.119,0.528,4.33,1.5l-1.125,1.585c-1.074-0.801-2.147-1.228-3.238-1.228c-1.228,0-1.943,0.631-1.943,1.415v0.034
		c0,0.92,0.545,1.33,2.847,1.875c2.522,0.614,3.817,1.517,3.817,3.494v0.034c0,2.232-1.756,3.562-4.261,3.562
		C534.528,41.491,532.808,40.86,531.375,39.582z"/>
</g>
<g>
	<path class="st1" d="M392.502,172.433h7.21v7.481h-7.21V172.433z"/>
	<path class="st1" d="M410.445,172.433h7.211v7.481h-7.211V172.433z"/>
	<path class="st1" d="M428.389,172.433h7.211v7.481h-7.211V172.433z"/>
</g>
</svg>
